solid OpenSCAD_Model
  facet normal -1 0 0
    outer loop
      vertex -13.25 -13.25 -0.5
      vertex -13.25 13.25 0.5
      vertex -13.25 13.25 -0.5
    endloop
  endfacet
  facet normal -1 -0 0
    outer loop
      vertex -13.25 13.25 0.5
      vertex -13.25 -13.25 -0.5
      vertex -13.25 -13.25 0.5
    endloop
  endfacet
  facet normal 0 0 1
    outer loop
      vertex 13.75 13.75 -0.5
      vertex 13.25 13.25 -0.5
      vertex 13.75 -13.75 -0.5
    endloop
  endfacet
  facet normal 0 0 1
    outer loop
      vertex 13.75 13.75 -0.5
      vertex -13.25 13.25 -0.5
      vertex 13.25 13.25 -0.5
    endloop
  endfacet
  facet normal 0 0 1
    outer loop
      vertex -13.25 13.25 -0.5
      vertex -13.75 13.75 -0.5
      vertex -13.25 -13.25 -0.5
    endloop
  endfacet
  facet normal -0 0 1
    outer loop
      vertex -13.75 13.75 -0.5
      vertex -13.25 13.25 -0.5
      vertex 13.75 13.75 -0.5
    endloop
  endfacet
  facet normal -0 0 1
    outer loop
      vertex 13.25 -13.25 -0.5
      vertex 13.75 -13.75 -0.5
      vertex 13.25 13.25 -0.5
    endloop
  endfacet
  facet normal -0 0 1
    outer loop
      vertex -13.25 -13.25 -0.5
      vertex 13.75 -13.75 -0.5
      vertex 13.25 -13.25 -0.5
    endloop
  endfacet
  facet normal 0 0 1
    outer loop
      vertex -13.25 -13.25 -0.5
      vertex -13.75 -13.75 -0.5
      vertex 13.75 -13.75 -0.5
    endloop
  endfacet
  facet normal 0 0 1
    outer loop
      vertex -13.75 -13.75 -0.5
      vertex -13.25 -13.25 -0.5
      vertex -13.75 13.75 -0.5
    endloop
  endfacet
  facet normal 1 -0 0
    outer loop
      vertex 13.25 -13.25 0.5
      vertex 13.25 13.25 -0.5
      vertex 13.25 13.25 0.5
    endloop
  endfacet
  facet normal 1 0 0
    outer loop
      vertex 13.25 13.25 -0.5
      vertex 13.25 -13.25 0.5
      vertex 13.25 -13.25 -0.5
    endloop
  endfacet
  facet normal 0 -1 0
    outer loop
      vertex -13.25 -13.25 -0.5
      vertex 13.25 -13.25 0.5
      vertex -13.25 -13.25 0.5
    endloop
  endfacet
  facet normal 0 -1 -0
    outer loop
      vertex 13.25 -13.25 0.5
      vertex -13.25 -13.25 -0.5
      vertex 13.25 -13.25 -0.5
    endloop
  endfacet
  facet normal -0 0 1
    outer loop
      vertex -13.25 13.25 0.5
      vertex 13.25 -13.25 0.5
      vertex 13.25 13.25 0.5
    endloop
  endfacet
  facet normal 0 0 1
    outer loop
      vertex 13.25 -13.25 0.5
      vertex -13.25 13.25 0.5
      vertex -13.25 -13.25 0.5
    endloop
  endfacet
  facet normal 0 1 -0
    outer loop
      vertex 13.25 13.25 -0.5
      vertex -13.25 13.25 0.5
      vertex 13.25 13.25 0.5
    endloop
  endfacet
  facet normal 0 1 0
    outer loop
      vertex -13.25 13.25 0.5
      vertex 13.25 13.25 -0.5
      vertex -13.25 13.25 -0.5
    endloop
  endfacet
  facet normal -1 0 0
    outer loop
      vertex -13.75 -13.75 -1.5
      vertex -13.75 13.75 -0.5
      vertex -13.75 13.75 -1.5
    endloop
  endfacet
  facet normal -1 -0 0
    outer loop
      vertex -13.75 13.75 -0.5
      vertex -13.75 -13.75 -1.5
      vertex -13.75 -13.75 -0.5
    endloop
  endfacet
  facet normal 0 0 -1
    outer loop
      vertex -13.75 -13.75 -1.5
      vertex 13.75 13.75 -1.5
      vertex 13.75 -13.75 -1.5
    endloop
  endfacet
  facet normal -0 0 -1
    outer loop
      vertex 13.75 13.75 -1.5
      vertex -13.75 -13.75 -1.5
      vertex -13.75 13.75 -1.5
    endloop
  endfacet
  facet normal 1 -0 0
    outer loop
      vertex 13.75 -13.75 -0.5
      vertex 13.75 13.75 -1.5
      vertex 13.75 13.75 -0.5
    endloop
  endfacet
  facet normal 1 0 0
    outer loop
      vertex 13.75 13.75 -1.5
      vertex 13.75 -13.75 -0.5
      vertex 13.75 -13.75 -1.5
    endloop
  endfacet
  facet normal 0 -1 0
    outer loop
      vertex -13.75 -13.75 -1.5
      vertex 13.75 -13.75 -0.5
      vertex -13.75 -13.75 -0.5
    endloop
  endfacet
  facet normal 0 -1 -0
    outer loop
      vertex 13.75 -13.75 -0.5
      vertex -13.75 -13.75 -1.5
      vertex 13.75 -13.75 -1.5
    endloop
  endfacet
  facet normal 0 1 -0
    outer loop
      vertex 13.75 13.75 -1.5
      vertex -13.75 13.75 -0.5
      vertex 13.75 13.75 -0.5
    endloop
  endfacet
  facet normal 0 1 0
    outer loop
      vertex -13.75 13.75 -0.5
      vertex 13.75 13.75 -1.5
      vertex -13.75 13.75 -1.5
    endloop
  endfacet
endsolid OpenSCAD_Model
